<svg xmlns="http://www.w3.org/2000/svg" width="53.688" height="47.625" viewBox="0 0 53.688 47.625">
  <metadata><?xpacket begin="﻿" id="W5M0MpCehiHzreSzNTczkc9d"?>
<x:xmpmeta xmlns:x="adobe:ns:meta/" x:xmptk="Adobe XMP Core 5.6-c138 79.159824, 2016/09/14-01:09:01        ">
   <rdf:RDF xmlns:rdf="http://www.w3.org/1999/02/22-rdf-syntax-ns#">
      <rdf:Description rdf:about=""/>
   </rdf:RDF>
</x:xmpmeta>
                                                                                                    
                                                                                                    
                                                                                                    
                                                                                                    
                                                                                                    
                                                                                                    
                                                                                                    
                                                                                                    
                                                                                                    
                                                                                                    
                                                                                                    
                                                                                                    
                                                                                                    
                                                                                                    
                                                                                                    
                                                                                                    
                                                                                                    
                                                                                                    
                                                                                                    
                                                                                                    
                           
<?xpacket end="w"?></metadata>
<defs>
    <style>
      .cls-1 {
        fill: #262626;
        fill-rule: evenodd;
      }
    </style>
  </defs>
  <path id="icon" class="cls-1" d="M30.285,16.733a11.965,11.965,0,0,0,.878-3.919,12.238,12.238,0,0,0-.514-4.321,12.188,12.188,0,0,0-2.053-4A10.623,10.623,0,0,0,25.3,1.621,7.061,7.061,0,0,0,21.94.7a3.359,3.359,0,0,0-1.031.163l-0.345.115s0.028,0.121.074,0.348,0.053,0.584.088,0.924A20.8,20.8,0,0,1,20.593,4.9a16.822,16.822,0,0,0,.584,6.466A15.177,15.177,0,0,0,22.6,14.619a17.086,17.086,0,0,0,2.02,2.809c0.655,0.726,2.132,2.407,2.669,2.834a24.762,24.762,0,0,0,.275-2.922,20.719,20.719,0,0,0,0-2.075c-0.011-.688-0.136-1.35-0.193-2-0.116-.641-0.274-1.254-0.4-1.84-0.206-.565-0.4-1.1-0.577-1.589-0.251-.461-0.48-0.885-0.683-1.261a5.1,5.1,0,0,0-.643-0.9l-0.606-.761s0.241,0.259.658,0.714a5.233,5.233,0,0,1,.718.861l0.787,1.23c0.22,0.491.457,1.02,0.71,1.583,0.174,0.586.38,1.206,0.548,1.858,0.11,0.66.287,1.341,0.351,2.043s0.164,1.417.16,2.135c0.031,0.815.018,1.622-.019,2.415,0.064-.069.139-0.126,0.2-0.2A10.615,10.615,0,0,0,30.285,16.733ZM23.9,22.681c0.107,0.176.2,0.343,0.3,0.516A15.149,15.149,0,0,0,12.715,33.206l0.357,0.045a16.179,16.179,0,0,1,2.282.316,1.769,1.769,0,0,1,.359-0.96,4.332,4.332,0,0,1,3.6-1.727,24.04,24.04,0,0,1,7.047.8,5.747,5.747,0,0,0,3.891-.219c3.8-1.521,7.136-1.38,9.832.379,0.334,0.216.68,0.446,1.031,0.683a15.14,15.14,0,0,0-11.624-9.4c0.145-.253.284-0.507,0.445-0.769a2.867,2.867,0,0,0,.406-1.034,2.025,2.025,0,0,1-.016-0.277c-0.542.681-1.028,1.366-1.457,2.018-0.264-.033-0.535-0.043-0.8-0.062,0.139-1.015.253-2.1,0.308-3.244a3,3,0,0,1-.258.261,3.759,3.759,0,0,0-.495,1.384c-0.093.536-.2,1.044-0.306,1.541-0.093,0-.18-0.022-0.274-0.022a15.258,15.258,0,0,0-2.279.177c-0.379-.566-0.789-1.142-1.251-1.726a2.039,2.039,0,0,1-.018.277A2.857,2.857,0,0,0,23.9,22.681Zm8.769-4.161c0.388-.369.828-0.666,1.218-0.99,0.419-.289.847-0.537,1.237-0.786l1.192-.548,1.063-.31a3.97,3.97,0,0,1,.836-0.134l0.731-.078-0.725.13a3.948,3.948,0,0,0-.81.192c-0.3.112-.646,0.241-1.018,0.378l-1.118.618c-0.367.271-.761,0.542-1.144,0.85-0.361.342-.76,0.657-1.109,1.044a15.641,15.641,0,0,0-1.038,1.18,19.458,19.458,0,0,0-1.3,1.8c0.519,0.024,2.2-.2,2.933-0.286a13.011,13.011,0,0,0,2.552-.594,11.6,11.6,0,0,0,2.43-1.146,12.748,12.748,0,0,0,3.554-3.393,15.7,15.7,0,0,1,1.241-1.572c0.187-.176.376-0.385,0.509-0.484l0.216-.159s-0.048-.086-0.139-0.241a2.654,2.654,0,0,0-.506-0.606A5.362,5.362,0,0,0,41.1,12.236a8.058,8.058,0,0,0-3.3-.006A9.475,9.475,0,0,0,32.185,15.7a9.085,9.085,0,0,0-1.45,2.668,7.966,7.966,0,0,0-.426,2.461c0,0.073.01,0.145,0.013,0.215,0.375-.471.77-0.935,1.192-1.387A16.057,16.057,0,0,1,32.665,18.52Zm-22.23-3.313a15.973,15.973,0,0,1,1.239,1.571,12.746,12.746,0,0,0,3.555,3.394,11.59,11.59,0,0,0,2.432,1.147,12.873,12.873,0,0,0,2.549.593c0.736,0.087,2.416.31,2.933,0.284a18.553,18.553,0,0,0-1.3-1.8c-0.315-.426-0.688-0.8-1.035-1.181s-0.751-.7-1.108-1.043c-0.385-.309-0.781-0.58-1.146-0.85-0.4-.219-0.773-0.427-1.118-0.619-0.373-.137-0.715-0.264-1.017-0.377a3.97,3.97,0,0,0-.813-0.192C15.145,16.048,14.884,16,14.884,16l0.731,0.078a4.069,4.069,0,0,1,.836.134c0.315,0.091.672,0.2,1.061,0.31l1.195,0.548c0.391,0.246.817,0.5,1.237,0.787,0.391,0.322.83,0.62,1.217,0.99s0.8,0.724,1.154,1.135c0.422,0.449.817,0.915,1.192,1.386,0-.071.017-0.142,0.012-0.216a7.9,7.9,0,0,0-.425-2.461,9,9,0,0,0-1.452-2.667,9.447,9.447,0,0,0-5.608-3.467,8.013,8.013,0,0,0-3.3.006,5.352,5.352,0,0,0-2.376,1.152,2.6,2.6,0,0,0-.507.6c-0.089.156-.139,0.239-0.139,0.239l0.214,0.162C10.059,14.821,10.247,15.029,10.435,15.207ZM47.37,40.3A31.863,31.863,0,0,0,38.8,32.715c-2.6-1.69-5.561-1.331-8.318-.227a7.347,7.347,0,0,1-4.985.264,22.485,22.485,0,0,0-6.555-.732,2.712,2.712,0,0,0-2.3,1.074c-0.315.415,2.265,2.143,4.479,2.143-0.411.82-7.567-.915-8.521-0.844L7.193,33.7c-1.924-.158-1.921-0.883-3.813.186a0.468,0.468,0,0,1-.236.034,2.4,2.4,0,0,0-2.233.97,1.3,1.3,0,0,0-.13,1.367c0.19,0.49.674,0.362,1.069,0.519a37.074,37.074,0,0,0,6.485,2.238c2.335,0.577,4.61,1.281,6.942,1.808a10.141,10.141,0,0,1,2.814.871,10.705,10.705,0,0,0,5.92,1.258c2.394-.108,4.794-0.013,7.2-0.027A10.255,10.255,0,0,1,40.783,48.3l13.548-.027C51.375,44.811,50.07,43.973,47.37,40.3Z" transform="translate(-0.656 -0.688)"/>
</svg>
