<svg xmlns="http://www.w3.org/2000/svg" width="53" height="53.156" viewBox="0 0 53 53.156">
  <metadata><?xpacket begin="﻿" id="W5M0MpCehiHzreSzNTczkc9d"?>
<x:xmpmeta xmlns:x="adobe:ns:meta/" x:xmptk="Adobe XMP Core 5.6-c138 79.159824, 2016/09/14-01:09:01        ">
   <rdf:RDF xmlns:rdf="http://www.w3.org/1999/02/22-rdf-syntax-ns#">
      <rdf:Description rdf:about=""/>
   </rdf:RDF>
</x:xmpmeta>
                                                                                                    
                                                                                                    
                                                                                                    
                                                                                                    
                                                                                                    
                                                                                                    
                                                                                                    
                                                                                                    
                                                                                                    
                                                                                                    
                                                                                                    
                                                                                                    
                                                                                                    
                                                                                                    
                                                                                                    
                                                                                                    
                                                                                                    
                                                                                                    
                                                                                                    
                                                                                                    
                           
<?xpacket end="w"?></metadata>
<defs>
    <style>
      .cls-1 {
        fill: #262626;
        fill-rule: evenodd;
      }
    </style>
  </defs>
  <path id="icon" class="cls-1" d="M41.081,37.4c0.64,0.045,1.284.091,1.916,0.116a19.043,19.043,0,0,1-14.611,8.456c0.3-.581.6-1.174,0.887-1.777A17.052,17.052,0,0,0,33.7,43.024a0.375,0.375,0,0,0,.039-0.086,1.153,1.153,0,0,1,.214-0.365l-0.084-.211,0.185-.264a2.406,2.406,0,0,1,.34-0.444c0.131-.1,1.229-1.053,1.468-1.232,0.207-.164,1.119-0.848,1.517-1.173,0.054-.044.1-0.086,0.136-0.113a7.547,7.547,0,0,0,.943-1.159,5.831,5.831,0,0,0,.354-0.793h0C39.57,37.268,40.33,37.34,41.081,37.4ZM22.469,38.688c-0.072-.011.021,0.039,0.082,0.072A0.115,0.115,0,0,0,22.469,38.688Zm14.287-1.34a4.625,4.625,0,0,0,.626,0h0.056a1.345,1.345,0,0,0,.63-0.238L38.09,37.1h0c-0.232-.03-0.471-0.059-0.7-0.092s-0.466-.063-0.7-0.1a0.382,0.382,0,0,1,.231.253C36.783,37.215,36.548,37.321,36.756,37.348Zm-14.2,1.412a0.01,0.01,0,0,1,0,.007C22.622,38.8,22.6,38.783,22.552,38.759Zm5.919-14.154L28.5,24.638C28.515,24.609,28.471,24.606,28.471,24.606Zm6.322,4.177H34.753l-0.036.151c-0.167.612-.335,1.233-0.512,1.852,0.143,0,.277.016,0.277,0.016a0.4,0.4,0,0,0,.2-0.272,1.913,1.913,0,0,1,.159-0.429l0.112,0.023a0.728,0.728,0,0,0,.1-0.342,2.778,2.778,0,0,0-.125-0.5,5.119,5.119,0,0,1,.061-0.531Zm-0.835,2.835-0.084.284L34,31.879l0.08,0.216c0.031-.069.05-0.122,0.05-0.122a1.31,1.31,0,0,0-.044-0.27A0.22,0.22,0,0,0,33.958,31.618ZM35.6,25.6l-0.04-.021c-0.092.378-.178,0.755-0.274,1.128a0.317,0.317,0,0,0,.284.064,3.4,3.4,0,0,0,.4.02c0.282,0,.327.034,0.377-0.085s0.065,0.065.065-.246a0.613,0.613,0,0,0-.246-0.528A2.424,2.424,0,0,0,35.6,25.6ZM53.59,34c-0.844,3.155-10.019,3.533-21.66,1.2-3.811,11.273-8.724,19.05-11.871,18.207-1.985-.534-2.868-4.391-2.668-10.094,0.069,0.036.137,0.078,0.2,0.112A19.093,19.093,0,0,1,8.122,28.143c0.553,0.289,1.115.566,1.686,0.844,2.039,0.978,4.178,1.872,6.348,2.671H16.15l0.006,0.114-0.312.554-0.289.182,0.079,0.131L15.686,32.9h-0.16v0.578a0.52,0.52,0,0,0,.421.289l-0.131.083a1.23,1.23,0,0,0,.158.34,2.55,2.55,0,0,1,.288.576c0.053,0.184.131,0.7,0.131,0.7s0.343,0.578.5,0.82a8.634,8.634,0,0,1,.6.814c0.131,0.264.419,0.131,0.968,0.264a2.15,2.15,0,0,1,.784.314,5.183,5.183,0,0,0,.474.342,1.73,1.73,0,0,0,.863.1,2.6,2.6,0,0,1,.748.118l0.094,0.013a1.352,1.352,0,0,1,.812.359l0.027,0.012c0.163,0.072.249,0.106,0.3,0.131a2.141,2.141,0,0,1,.046.444c0.027,0.131.211-.026,0.342-0.026a0.491,0.491,0,0,1,.238.151,0.554,0.554,0,0,0,.128.059c0.234,0.078.287-.078,0.287-0.078l0.265,0.314,0.21,0.289-0.21.5-0.183.183a1.86,1.86,0,0,0,0-.425c-0.029-.181-0.184.084-0.184,0.084l-0.158.5,0.574,0.554,0.174,0.156,0.376,0.345,0.024,0.067L24.708,42.5l-0.029.209,0.131,0.345a2.012,2.012,0,0,1-.316.1,0.682,0.682,0,0,1-.155.026,0.425,0.425,0,0,0-.245.183,1.764,1.764,0,0,0-.148.21,2.088,2.088,0,0,0,.148.239,0.915,0.915,0,0,0,.193.208c0.036,0.03.07,0.042,0.1,0.07,0.029,0,.056.011,0.084,0.014a0.223,0.223,0,0,1-.019.032h0l-0.078.134h0c-0.228.394-.514,0.88-0.844,1.393a19.14,19.14,0,0,1-5.5-1.98l0.01,0c0.051,3.444.694,5.678,1.953,6.015,2.383,0.64,6.247-5.723,9.438-15.03q-2.012-.45-4.087-1.012C10.744,29.739-.288,23.531.71,19.8c0.533-1.99,4.374-2.874,10.062-2.674-0.065.112-.128,0.229-0.189,0.34A19.037,19.037,0,0,1,27.249,7.793c-0.115,0-.233-0.006-0.351,0,2.67-5.035,5.359-7.933,7.341-7.4,3.723,1,3.571,13.687-.343,28.325-0.364,1.387-.76,2.741-1.164,4.055,9.635,1.886,17.058,1.712,17.707-.679,0.337-1.26-1.273-2.933-4.222-4.7V27.366a19.234,19.234,0,0,1-1.041,5.775c-0.609.033-1.169,0.035-1.622,0.035h0c-0.369,0-.659-0.006-0.83-0.013-0.5-.019-0.991-0.041-1.491-0.078a6.076,6.076,0,0,0,.179-0.661,3.008,3.008,0,0,1,.115-0.407l-0.586-.134L40.873,31.5l-0.246-.044-0.227.433a1.322,1.322,0,0,1-.383.379,1.377,1.377,0,0,1-.471.135l0.065-.311a0.617,0.617,0,0,0-.336.042l-0.025-.3A0.688,0.688,0,0,0,39,31.523a0.908,0.908,0,0,1-.294-0.272,1.227,1.227,0,0,1-.134-0.273,0.115,0.115,0,0,0-.02-0.019l0.033-.155s0.213-.238.39-0.447,0.235,0.209.417,0.362a0.4,0.4,0,0,1,.12.386,0.645,0.645,0,0,0,.268.061,0.234,0.234,0,0,1,.21.118l0.3,0.119,0.3-.331a0.289,0.289,0,0,1,.268-0.209c0.209,0,.033.268,0.033,0.422s0.149,0,.566-0.18a4.059,4.059,0,0,0,.626-0.361,0.6,0.6,0,0,0,.327-0.268,2.832,2.832,0,0,0,.271-0.239l0.327,0.214,0.361-.062,0.361-.211v0.273a0.491,0.491,0,0,0-.092.5c0.151,0.211.178,0.15,0.092,0.42a0.48,0.48,0,0,0,0,.422,0.847,0.847,0,0,1,.031.191,17.441,17.441,0,0,0-6.139-19q0.079-1,.121-1.99a19.136,19.136,0,0,1,8.472,15.9c0-.087,0-0.172,0-0.262C51.233,29.317,54.122,32.01,53.59,34ZM30.744,13.221s0.189-.106.282-0.149,0-.052-0.093-0.118a0.194,0.194,0,0,0-.215.052,0.618,0.618,0,0,0-.106.173,0.112,0.112,0,0,1-.014.027c-0.051.063-.107-0.1-0.12-0.185a0.455,0.455,0,0,0-.349-0.03,0.965,0.965,0,0,1,.081.174,2.138,2.138,0,0,1,.028.229,0.511,0.511,0,0,0,.053.268,1.324,1.324,0,0,0,.2.2L30.6,13.8l0.039-.027L30.8,13.5l0.134-.12ZM28.6,12.031s0.022-.19.126-0.166a0.4,0.4,0,0,0,.21-0.253,0.309,0.309,0,0,0-.188-0.168c-0.106,0-.337.023-0.337,0.023l-0.064-.128a0.625,0.625,0,0,0-.294.042,0.147,0.147,0,0,1-.213-0.084l-0.021-.253-0.233.064-0.168-.148s-0.062-.127.041-0.127a2.115,2.115,0,0,1,.251.022l0.212-.148-0.084-.166,0.146-.168s-0.293-.151-0.358-0.04a0.747,0.747,0,0,1-.3.188,0.314,0.314,0,0,0-.1-0.233c-0.124-.17.062-0.253-0.212-0.19a0.983,0.983,0,0,0-.37.177,0.776,0.776,0,0,0-.093.075,0.5,0.5,0,0,0-.312.168,0.521,0.521,0,0,0,.357.168,0.484,0.484,0,0,1,.048-0.056c0.055-.06.156-0.145,0.227-0.07a1.65,1.65,0,0,1,.188.233l-0.4.209-0.015-.013-0.2-.156h-0.4l-0.188.084-0.379.042a1.257,1.257,0,0,1,.064.3,0.36,0.36,0,0,1-.167.213l-0.225-.021-0.029,0-0.233.168a0.89,0.89,0,0,0-.358.1,0.1,0.1,0,0,1-.054.028c-0.1.026-.2-0.04-0.2,0.1,0,0.168.02,0.253-.1,0.275-0.029.007-.062,0.013-0.1,0.019l-0.3.066a0.976,0.976,0,0,0-.233.168,0.963,0.963,0,0,1-.337.168l-0.034-.01-0.386-.078-0.546.234-0.016.034-0.111.264-0.359.042a0.771,0.771,0,0,0-.315.251,0.269,0.269,0,0,1-.118.138,0.525,0.525,0,0,1-.093.053,1.71,1.71,0,0,0-.316.166,1.828,1.828,0,0,0-.232.251l-0.087.191,0.15,0.213-0.336.04,0.04,0.168c0.168,0.168.275,0.252,0.379,0.168A0.461,0.461,0,0,1,21,14.471c0.075-.027.209-0.072,0.324-0.113,0.084-.031.161-0.058,0.2-0.078a1.444,1.444,0,0,1,.4-0.188,1.7,1.7,0,0,0,.252-0.021l0.05-.04L22.51,13.8l0.337,0.15,0.274-.042a0.2,0.2,0,0,0,.049.122,0.193,0.193,0,0,0,.079.044,1.22,1.22,0,0,0,.314.042,0.355,0.355,0,0,1,.252-0.149h0.376l0.043-.189,0.238,0.111L24.506,13.9l0.19,0.147s-0.084.022,0.126,0.106a0.487,0.487,0,0,0,.323.009,0.5,0.5,0,0,0,.078-0.032l0.359,0.084s0.023-.337-0.085-0.337a1.019,1.019,0,0,1-.314-0.1l0.231-.084,0.252-.042,0.064,0.276,0.4-.128-0.062-.232,0.021-.36,0.378,0.063,0.023,0.252a0.8,0.8,0,0,0,.155.051c0.089,0.025.182,0.028,0.182-.051,0-.148-0.084-0.252.021-0.252a1.611,1.611,0,0,0,.317-0.063l0.1-.15,0.149-.338,0.166,0.255,0.233-.149-0.043-.213,0.5-.233s0.3-.042.425-0.042a0.256,0.256,0,0,0,.165-0.038s0.084-.169-0.042-0.169A0.339,0.339,0,0,1,28.6,12.031ZM23.571,20.2l-0.21.1,0.485,0.233,0.238,0.012,0.178,0.011a1.226,1.226,0,0,0,.151-0.423,0.217,0.217,0,0,1,.072-0.171c0.043-.033.108-0.056,0.2-0.125a0.192,0.192,0,0,0,.086-0.295,0.268,0.268,0,0,0-.287-0.072l-0.051.006-0.349.174-0.03.016-0.168-.212-0.233.063-0.231.234a0.4,0.4,0,0,1,.149.022,0.564,0.564,0,0,1,.232,0c0.167,0.023-.041.168-0.041,0.168l-0.337.085Zm0.8-4.936-0.288.019H24.076a1.17,1.17,0,0,0,.008.479,0.3,0.3,0,0,0,.012.032,0.5,0.5,0,0,0,.388.269,0.761,0.761,0,0,0,.287-0.017c0.187-.04.244-0.052,0.255-0.052L25,16a0.062,0.062,0,0,0,.026-0.01l0.129-.05,0.164-.066a0.588,0.588,0,0,0,.271-0.315c0-.151-0.233-0.1-0.421-0.1H25.156c-0.172,0-.158-0.027-0.238-0.233s-0.085.124-.085,0.124a0.319,0.319,0,0,1-.166-0.21,1.343,1.343,0,0,1-.105-0.337l-0.075.038-0.238.128,0.062,0.127ZM24.16,21.312s0.085,0.1.212,0.277c0.053,0.072.088,0.048,0.112,0A0.25,0.25,0,0,1,24.6,21.42c0.1,0,.023.169,0.149,0.148a3.669,3.669,0,0,1,.4-0.022l0.008,0.009,0.181,0.2a0.492,0.492,0,0,0,.231-0.212c0.023-.1.023-0.1,0.19-0.1s0.105-.022.316-0.191-0.064-.313-0.233-0.4a0.138,0.138,0,0,1-.024-0.233l0.024-.3a1.768,1.768,0,0,0-.024-0.253c-0.021-.147-0.062-0.253-0.083-0.4a0.125,0.125,0,0,0-.168-0.1V19.374a1.867,1.867,0,0,0,.421-0.042c0.1-.04,0-0.253,0-0.253s-0.25-.1-0.44-0.166-0.064-.1.252-0.126,0.042-.168.042-0.168l-0.252-.147a0.872,0.872,0,0,1-.337.253,0.28,0.28,0,0,0-.1.059,1.457,1.457,0,0,0-.091.258v0.166l0.091,0.157,0.056,0.1a1.32,1.32,0,0,1-.056.179,0.649,0.649,0,0,1-.07.137,0.252,0.252,0,0,0,.041.276,2.111,2.111,0,0,1-.041.424c-0.041.147-.361-0.129-0.361-0.129l-0.062.36H24.369L24.411,20.9l0.072,0.055L24.6,21.047l0.125,0.191-0.241-.088-0.114-.038ZM20.86,11.8l-0.359.38a1.789,1.789,0,0,0,.422.04,2.055,2.055,0,0,0,.408-0.246c0.128-.088.255-0.174,0.35-0.237a0.367,0.367,0,0,1,.316-0.1L22.082,11.8l-0.506.3,0.59-.085,0.07-.066,0.227-.209,0.233-.275,0.358,0.022,0.134-.049,0.306-.117a1.305,1.305,0,0,0,.361-0.359c0.081-.149.137-0.064,0.238-0.041a0.177,0.177,0,0,0,.1,0c0.166-.04.085-0.19,0.085-0.337,0-.072.1-0.078,0.22-0.077a0.69,0.69,0,0,0,.329-0.031c0.125-.087-0.105-0.253-0.274-0.3L24.5,10.161c-0.133-.032-0.2-0.047-0.22-0.177a0.15,0.15,0,0,0-.181-0.1,0.5,0.5,0,0,0-.239.075c-0.125.086-.376,0.1-0.3-0.062A0.344,0.344,0,0,1,23.6,9.847a17.74,17.74,0,0,0-1.951.53c0.146,0,.209.008,0.3,0.008,0.126,0-.126.149-0.126,0.149a2.648,2.648,0,0,0-.485.212l-0.012.012a0.233,0.233,0,0,0-.049.222h0.049a1.7,1.7,0,0,0,.265-0.022,1.5,1.5,0,0,0,.461-0.233c0.09-.053.14-0.083,0.175-0.1a0.928,0.928,0,0,0,.182-0.071c0.146-.088.04,0.231,0.04,0.231l0.4-.148,0.324-.014,0.118-.007,0.126-.233-0.244-.052L23.047,10.3l0.127-.126h0.007a4.884,4.884,0,0,1,.539.024c0.128,0.019,0,.167,0,0.167l-0.04.166-0.147.275s-0.19.023-.337,0.023H23.181a0.6,0.6,0,0,0-.3.168l-0.3.21H22.163l-0.064.233-0.337-.04a1.369,1.369,0,0,1-.062-0.253c-0.023-.15-0.168,0-0.168,0a0.736,0.736,0,0,1-.2.358,0.2,0.2,0,0,1-.093.042A0.78,0.78,0,0,0,20.86,11.8Zm4.584-2.233c-0.181.017-.361,0.034-0.54,0.056,0.023,0,.04.014,0.1,0.025,0.125,0.021.021,0.062,0.021,0.166,0,0.069.03,0.1,0.134,0.116,0.053,0.009.125,0.019,0.227,0.033,0.3,0.041.1-.087,0.062-0.337A0.2,0.2,0,0,1,25.443,9.566Zm-1.135.248a0.606,0.606,0,0,0,.04-0.107c-0.032.006-.061,0.009-0.091,0.014A0.166,0.166,0,0,1,24.308,9.814Zm2.411-.331a0.312,0.312,0,0,0-.034.165c0.023,0.189.064,0,.19-0.042a0.137,0.137,0,0,0,.108-0.125C26.9,9.479,26.812,9.482,26.719,9.482ZM14.387,15.071l0.265,0.018,0.337-.211,0.336,0.1-0.19.088a2.678,2.678,0,0,0-.231.4,0.7,0.7,0,0,0,.5.1A2.628,2.628,0,0,0,15.555,15,0.657,0.657,0,0,1,16,14.728l0.125-.337,0.213,0.15a0.811,0.811,0,0,0,.1-0.337,0.644,0.644,0,0,0-.4-0.128l0.376-.189,0.379,0.1-0.086.737h0.378l0.085,0.128a3.568,3.568,0,0,1-.632.293,0.972,0.972,0,0,0-.337.277l-0.209.233a0.461,0.461,0,0,0,.251.168,0.175,0.175,0,0,1,.166.147,0.355,0.355,0,0,0,.233-0.211,0.176,0.176,0,0,0-.085-0.166l0.315-.36c0.124-.149.8-0.443,0.926-0.592a0.194,0.194,0,0,0,.04-0.251l0.316-.191s0.085-.4.126-0.5a5.9,5.9,0,0,1,.8-0.549,1.577,1.577,0,0,1,.777-0.359c0.423-.106.128-0.151,0.1-0.277s-0.358.169-.358,0.169l-0.5-.15a0.742,0.742,0,0,0,.421-0.167,0.463,0.463,0,0,1,.315-0.1c0.149-.062.105-0.128,0.105-0.128h0.231a2.4,2.4,0,0,0,.3-0.358c0.1-.166.337-0.486,0.337-0.486s-0.525.3-.632,0.337a1.447,1.447,0,0,1-.4-0.04,3.69,3.69,0,0,0-.527.294C19.034,11.97,18.8,12.1,18.8,12.1l-0.313-.062-0.252.1-0.611.253a3.173,3.173,0,0,1,.36-0.232c0.252-.151.5-0.3,0.5-0.3l0.4-.1,0.033-.207c-0.16.087-.32,0.166-0.483,0.259A17.671,17.671,0,0,0,14.387,15.071ZM30.222,32.24c0.424-1.351.832-2.749,1.215-4.188,3.409-12.741,3.8-23.707.885-24.49-1.257-.338-2.924,1.273-4.687,4.231H27.579a19.088,19.088,0,0,1,5.793,1.044c0.034,0.61.037,1.173,0.036,1.627h0c0,0.368-.006.662-0.012,0.834-0.058,1.6-.2,3.24-0.413,4.892a1.024,1.024,0,0,0-.246-0.053,0.407,0.407,0,0,0-.229,0,1.457,1.457,0,0,1-.259-0.28,0.794,0.794,0,0,0-.471-0.3c-0.262-.09-0.243.1-0.243,0.1a0.894,0.894,0,0,1-.558.14,0.376,0.376,0,0,0-.38.328h0l-0.226.194a0.42,0.42,0,0,1-.262.209,0.863,0.863,0,0,0-.243.034,2.191,2.191,0,0,0-.068.4,0.163,0.163,0,0,1-.14.16,1.671,1.671,0,0,0-.3.087A3.691,3.691,0,0,0,29,17.4a2.235,2.235,0,0,1-.313.262c-0.243.138-.33,0.191-0.33,0.191l-0.33.069L28.194,18.1l-0.26.053a0.825,0.825,0,0,0,.016.278,0.387,0.387,0,0,0,.3.14,1.889,1.889,0,0,1-.385.229c-0.209.088-.209,0.12-0.192,0.209a0.6,0.6,0,0,0,.486.367c0.352,0.088.1-.017,0.26-0.1a1.865,1.865,0,0,1,.33-0.14,1.617,1.617,0,0,1,.213.5c0,0.156-.053.453-0.034,0.56s0.19-.035.19-0.035l-0.156.172S29,20.65,29,20.74s0.31,0.034.31-.052a0.439,0.439,0,0,1,.433-0.244c0.26-.018.227-0.051,0.227-0.261a3.309,3.309,0,0,1,.052-0.489l0.3-.088s0.17-.128.282-0.234a0.55,0.55,0,0,0,.069-0.08c0.036-.056-0.006-0.112-0.069-0.166s-0.118-.09-0.16-0.128a0.983,0.983,0,0,1-.121-0.542,0.69,0.69,0,0,1,.02-0.227,0.267,0.267,0,0,1,.262-0.148l0.033-.009c0.122-.035.277-0.243,0.5-0.349S31.012,17.6,31.012,17.6s0.036-.191.07-0.35,0.486,0.053.486,0.053l0.174,0.208-0.209.159-0.24.363-0.348.454,0.279,0.73a0.921,0.921,0,0,0,.4.1,0.843,0.843,0,0,0,.435-0.19,2.257,2.257,0,0,1,.51-0.151l-0.081.488a1.986,1.986,0,0,1-.366-0.033,4.228,4.228,0,0,0-.591.148c-0.248.027-.1,0.2-0.1,0.321a0.674,0.674,0,0,0,.346.272l-0.271.172a0.41,0.41,0,0,0-.368-0.246,0.814,0.814,0,0,0-.3.469,0.534,0.534,0,0,0,.1.5,1.024,1.024,0,0,0-.34.112c-0.019.013-.037,0.022-0.056,0.034-0.171.121-.221,0.026-0.221,0.026A0.336,0.336,0,0,0,30.1,21.09a1.9,1.9,0,0,0-.424.244,1.943,1.943,0,0,1-.542,0l-0.273-.3-0.226.226a0.681,0.681,0,0,1-.321-0.2c-0.118-.149,0-0.121-0.025-0.247s-0.073-.123-0.073-0.123l0.123-.2,0.321-.2a1.071,1.071,0,0,0-.075-0.64c-0.15-.2-0.15.2-0.15,0.2l-0.494.32,0.026,0.669-0.1.3-0.192-.046-0.123.148a2.213,2.213,0,0,0-.319-0.148,0.793,0.793,0,0,0-.544.246l-0.044.11-0.079.185-0.271-.05-0.148.174h-0.3c-0.126,0-.048.222-0.048,0.222a0.552,0.552,0,0,1-.181.136l-0.043-.057a0.267,0.267,0,0,0-.268.072,0.431,0.431,0,0,1-.158.068c-0.07.016-.131,0.023-0.131,0.023L24.894,21.9s-0.089-.165-0.177-0.035a0.241,0.241,0,0,0-.056.216L24.7,22.3l-0.18.017L24.483,22.3l-0.09-.026-0.311-.188-0.047-.027s-0.215-.037-0.177.105,0.215,0.323.215,0.414a0.031,0.031,0,0,0,.012.024,0.587,0.587,0,0,1,.312.159,0.489,0.489,0,0,1-.164.27,0.382,0.382,0,0,1,.126.27,1.93,1.93,0,0,1-.073.5c-0.035.107-.125,0.072-0.161,0.182a0.749,0.749,0,0,1-.043.087,1.4,1.4,0,0,1-.136.181,0.937,0.937,0,0,1-.361.035,1.274,1.274,0,0,0-.324-0.2,0.227,0.227,0,0,0-.088-0.006,0.216,0.216,0,0,1-.233-0.067,1.924,1.924,0,0,0-.432-0.252,0.436,0.436,0,0,1-.215-0.179s-0.029-.018-0.066-0.036a0.6,0.6,0,0,0-.222-0.088,0.506,0.506,0,0,0-.233.163,0.869,0.869,0,0,1,0,.323,0.445,0.445,0,0,1-.072.342c-0.105.072-.126,0.017-0.143,0.163s0.072,0.072-.072.216a1.444,1.444,0,0,1-.163.194,0.352,0.352,0,0,0-.035.024,0.585,0.585,0,0,0-.289.217,0.82,0.82,0,0,0-.125.432,2.272,2.272,0,0,0,.393.574l0.056,0.017a0.2,0.2,0,0,1,.163.147c0,0.128-.147.181,0,0.272a1.127,1.127,0,0,1,.16.163,4.723,4.723,0,0,0,.581.142c0.294,0.057.586,0.11,0.586,0.11l0.2-.144h0.341l0.089-.306,0.27-.017,0.019-.291s-0.035-.288.053-0.288a1.165,1.165,0,0,0,.3-0.15c0.125-.077.239-0.157,0.239-0.157s0.069,0.015.161,0.028a0.7,0.7,0,0,0,.378-0.009,2.637,2.637,0,0,0,.289-0.361,0.774,0.774,0,0,1,0-.328,0.066,0.066,0,0,1,.065-0.048,1.107,1.107,0,0,1,.594.127,0.883,0.883,0,0,0,.485.233,1.188,1.188,0,0,0,.35-0.186l0.044-.033c0.038-.028.146-0.1,0.262-0.19a0.111,0.111,0,0,0,.008.013,0.507,0.507,0,0,1,.323.163,0.811,0.811,0,0,1,.072.5,0.72,0.72,0,0,0,.323.376c0.09,0.107.524,0.684,0.665,0.864s0.431,0.5.431,0.5L28.92,27.6l-0.3.216a2.744,2.744,0,0,1-.433-0.055,0.2,0.2,0,0,0-.2.072,1.215,1.215,0,0,1-.234-0.178c-0.163-.145-0.052.019-0.252,0.127s0.252,0.269.362,0.359a2.917,2.917,0,0,1,.319.345c0.072,0.089.252-.033,0.252-0.18a2.015,2.015,0,0,1,.019-0.27h0.321l0.2-.233,0.165-.143,0.072-.2-0.126-.36a1.634,1.634,0,0,1,.3-0.072,0.462,0.462,0,0,1,.181.27l0.093,0.036a0.808,0.808,0,0,0-.055-0.306,2.072,2.072,0,0,0-.341-0.305,2.808,2.808,0,0,1-.418-0.2,4.059,4.059,0,0,1-.412-0.646,0.463,0.463,0,0,1-.053-0.306,2.947,2.947,0,0,0-.271-0.321,0.579,0.579,0,0,1-.05-0.306s0.162-.108.341-0.216a0.231,0.231,0,0,0,.1-0.081,0.915,0.915,0,0,1,.258.421,1.49,1.49,0,0,0,.107.45,0.75,0.75,0,0,0,.539.251c0.288,0.053.2,0.251,0.2,0.251a1.59,1.59,0,0,1,.3.541c0.033,0.216.033,0.324,0.053,0.593a1.882,1.882,0,0,0,.232.561c0.091,0.248.123,0.248,0.179,0.445,0.025,0.092.042,0.183,0.075,0.273q-0.266.99-.566,1.993a2.032,2.032,0,0,0-.288.727,0.518,0.518,0,0,1-.133.052h0l-0.374-.091h0a4.6,4.6,0,0,0-.854-0.434,4.947,4.947,0,0,1-.421-0.658,0.268,0.268,0,0,0-.315-0.078,1.743,1.743,0,0,1-.63-0.238c-0.056-.07-0.15-0.177-0.225-0.261s-0.118-.131-0.118-0.131a1.393,1.393,0,0,1,.118-0.1,0.727,0.727,0,0,1,.248-0.159c0.131-.028-0.052-0.292-0.21-0.555s0.42-.342.393-0.473a0.734,0.734,0,0,0-.432-0.2l-0.013,0a1.073,1.073,0,0,0-.523,0l-0.5-.1s-0.158.05-.289,0.1a0.213,0.213,0,0,1-.169-0.022,0.636,0.636,0,0,1-.3-0.3,0.361,0.361,0,0,0-.369-0.123,0.474,0.474,0,0,1-.208-0.059,0.328,0.328,0,0,0-.192-0.056c-0.115,0-.222.066-0.359,0.085-0.171.022-.4,0.078-0.549,0.1a0.4,0.4,0,0,1-.081.01,1.143,1.143,0,0,0-.472.209c-0.184.1-.235-0.29-0.235-0.29a1.015,1.015,0,0,1-.16-0.019,2.61,2.61,0,0,1-.472-0.139c-0.393-.16-0.211-0.4-0.211-0.4s-0.072.059-.221,0.19c-0.05.042-.1,0.095-0.169,0.152a0.7,0.7,0,0,1-.578.315,0.818,0.818,0,0,0-.523.159,2.949,2.949,0,0,0-.514.723,63.143,63.143,0,0,1-9.007-3.825c-0.121-.066-0.318-0.173-0.56-0.31v0C9.555,23.995,9,23.666,8.417,23.288a19.16,19.16,0,0,1,2.007-5.573,0.274,0.274,0,0,0-.037.069c-3.435.05-5.663,0.7-6,1.953-0.78,2.927,8.89,8.066,21.6,11.483C27.429,31.589,28.842,31.932,30.222,32.24ZM26.36,26.857a0.294,0.294,0,0,0-.087.23,0.312,0.312,0,0,0,.159.1,0.512,0.512,0,0,0,.219-0.015c0.041-.009.094-0.021,0.152-0.038,0.172-.051.069-0.14,0.1-0.262a1.65,1.65,0,0,1,.1-0.406c0.07-.122-0.142-0.212-0.142-0.212s-0.163.23-.222,0.322l-0.006.012A0.814,0.814,0,0,1,26.36,26.857Zm0.289-.943a0.513,0.513,0,0,0,.346-0.185c0.05-.141.034-0.069,0.088-0.229s-0.142.053-.142,0.053l-0.23.14-0.062.136-0.041.093A0.154,0.154,0,0,0,26.649,25.914Z" transform="translate(-0.656 -0.313)"/>
</svg>
