<svg xmlns="http://www.w3.org/2000/svg" width="54.125" height="54.125" viewBox="0 0 54.125 54.125">
  <metadata><?xpacket begin="﻿" id="W5M0MpCehiHzreSzNTczkc9d"?>
<x:xmpmeta xmlns:x="adobe:ns:meta/" x:xmptk="Adobe XMP Core 5.6-c138 79.159824, 2016/09/14-01:09:01        ">
   <rdf:RDF xmlns:rdf="http://www.w3.org/1999/02/22-rdf-syntax-ns#">
      <rdf:Description rdf:about=""/>
   </rdf:RDF>
</x:xmpmeta>
                                                                                                    
                                                                                                    
                                                                                                    
                                                                                                    
                                                                                                    
                                                                                                    
                                                                                                    
                                                                                                    
                                                                                                    
                                                                                                    
                                                                                                    
                                                                                                    
                                                                                                    
                                                                                                    
                                                                                                    
                                                                                                    
                                                                                                    
                                                                                                    
                                                                                                    
                                                                                                    
                           
<?xpacket end="w"?></metadata>
<defs>
    <style>
      .cls-1 {
        fill: #262626;
        fill-rule: evenodd;
      }
    </style>
  </defs>
  <path id="icon" class="cls-1" d="M54,15.9a1.2,1.2,0,0,0,.48-2.148c-1.452-1.056-3.318-2.1-4.717-1.788l2.9-7.217a1.2,1.2,0,0,0-1.56-1.56l-7.225,2.9c0.312-1.4-.732-3.264-1.788-4.716a1.2,1.2,0,0,0-2.148.48,39.129,39.129,0,0,1-2.634,7.889,13.369,13.369,0,0,1,2.172,1.752l4.873,4.871a13.134,13.134,0,0,1,1.758,2.172A38.94,38.94,0,0,1,54,15.9ZM42.731,17.985l-4.873-4.871a10.731,10.731,0,0,0-16.946,2.334L15.56,24.956l5.809,9.575-8.347-5.063L1.248,50.411A3.081,3.081,0,0,0,3.906,55a3.125,3.125,0,0,0,1.518-.408l9.151-5.142-3.072-5.7,6.745,3.635L37.054,36.823l-5.161-9.011L42.172,33.7A10.752,10.752,0,0,0,42.731,17.985Z" transform="translate(-0.844 -0.875)"/>
</svg>
